<mxfile host="app.diagrams.net" agent="Mozilla/5.0 (Windows NT 10.0; Win64; x64) AppleWebKit/537.36 (KHTML, like Gecko) Chrome/139.0.0.0 Safari/537.36" version="28.1.1">
  <diagram name="Page-1" id="WA1r6KUQcry2bDk7fgSe">
    <mxGraphModel dx="1042" dy="562" grid="1" gridSize="10" guides="1" tooltips="1" connect="1" arrows="1" fold="1" page="1" pageScale="1" pageWidth="850" pageHeight="1100" math="0" shadow="0">
      <root>
        <mxCell id="0" />
        <mxCell id="1" parent="0" />
        <mxCell id="Axslk_d-Ad8dGzHeB5Ps-1" value="&lt;font style=&quot;font-size: 22px; color: rgb(26, 26, 26);&quot;&gt;&lt;b style=&quot;&quot;&gt;Student Information System&lt;/b&gt;&lt;/font&gt;" style="rounded=0;whiteSpace=wrap;html=1;fillColor=#ffcc99;strokeColor=#36393d;" vertex="1" parent="1">
          <mxGeometry x="200" y="60" width="400" height="60" as="geometry" />
        </mxCell>
        <mxCell id="Axslk_d-Ad8dGzHeB5Ps-2" value="&lt;b&gt;&lt;font style=&quot;font-size: 15px;&quot;&gt;Admin&lt;/font&gt;&lt;/b&gt;" style="rounded=0;whiteSpace=wrap;html=1;fillColor=#ffcc99;strokeColor=#36393d;" vertex="1" parent="1">
          <mxGeometry x="90" y="180" width="160" height="50" as="geometry" />
        </mxCell>
        <mxCell id="Axslk_d-Ad8dGzHeB5Ps-3" value="&lt;b&gt;&lt;font style=&quot;font-size: 13px;&quot;&gt;Login to&amp;nbsp;&lt;/font&gt;&lt;/b&gt;&lt;div&gt;&lt;b&gt;&lt;font style=&quot;font-size: 13px;&quot;&gt;System&lt;/font&gt;&lt;/b&gt;&lt;/div&gt;" style="ellipse;whiteSpace=wrap;html=1;aspect=fixed;fillColor=#ffcc99;strokeColor=#36393d;" vertex="1" parent="1">
          <mxGeometry x="345" y="160" width="80" height="80" as="geometry" />
        </mxCell>
        <mxCell id="Axslk_d-Ad8dGzHeB5Ps-4" value="&lt;b&gt;Check roles of Access&lt;/b&gt;" style="ellipse;whiteSpace=wrap;html=1;aspect=fixed;fillColor=#ffcc99;strokeColor=#36393d;" vertex="1" parent="1">
          <mxGeometry x="510" y="160" width="80" height="80" as="geometry" />
        </mxCell>
        <mxCell id="Axslk_d-Ad8dGzHeB5Ps-5" value="&lt;b&gt;&lt;font style=&quot;font-size: 13px;&quot;&gt;Forgot&amp;nbsp;&lt;/font&gt;&lt;/b&gt;&lt;div&gt;&lt;b&gt;&lt;font style=&quot;font-size: 13px;&quot;&gt;password&lt;/font&gt;&lt;/b&gt;&lt;/div&gt;" style="ellipse;whiteSpace=wrap;html=1;aspect=fixed;fillColor=#ffcc99;strokeColor=#36393d;" vertex="1" parent="1">
          <mxGeometry x="120" y="280" width="80" height="80" as="geometry" />
        </mxCell>
        <mxCell id="Axslk_d-Ad8dGzHeB5Ps-6" value="&lt;b&gt;&lt;font style=&quot;font-size: 13px;&quot;&gt;Manage&amp;nbsp;&lt;/font&gt;&lt;/b&gt;&lt;div&gt;&lt;b&gt;&lt;font style=&quot;font-size: 13px;&quot;&gt;Modules&lt;/font&gt;&lt;/b&gt;&lt;/div&gt;" style="ellipse;whiteSpace=wrap;html=1;aspect=fixed;fillColor=#ffcc99;strokeColor=#36393d;" vertex="1" parent="1">
          <mxGeometry x="510" y="280" width="80" height="80" as="geometry" />
        </mxCell>
        <mxCell id="Axslk_d-Ad8dGzHeB5Ps-7" value="&lt;b&gt;Che&lt;font style=&quot;font-size: 13px;&quot;&gt;ck&amp;nbsp;&lt;/font&gt;&lt;/b&gt;&lt;div&gt;&lt;b&gt;&lt;font style=&quot;font-size: 13px;&quot;&gt;credentials&lt;/font&gt;&lt;/b&gt;&lt;/div&gt;" style="ellipse;whiteSpace=wrap;html=1;aspect=fixed;fillColor=#ffcc99;strokeColor=#36393d;" vertex="1" parent="1">
          <mxGeometry x="345" y="280" width="80" height="80" as="geometry" />
        </mxCell>
        <mxCell id="Axslk_d-Ad8dGzHeB5Ps-8" value="&lt;b&gt;&lt;font style=&quot;font-size: 13px;&quot;&gt;Send email&lt;/font&gt;&lt;/b&gt;&lt;div&gt;&lt;b&gt;&lt;font style=&quot;font-size: 13px;&quot;&gt;to user&lt;/font&gt;&lt;/b&gt;&lt;/div&gt;" style="ellipse;whiteSpace=wrap;html=1;aspect=fixed;fillColor=#ffcc99;strokeColor=#36393d;" vertex="1" parent="1">
          <mxGeometry x="120" y="420" width="80" height="80" as="geometry" />
        </mxCell>
        <mxCell id="Axslk_d-Ad8dGzHeB5Ps-9" value="&lt;font style=&quot;font-size: 15px;&quot;&gt;&lt;b&gt;Manage teacher&amp;nbsp;&lt;/b&gt;&lt;/font&gt;&lt;div&gt;&lt;font style=&quot;font-size: 15px;&quot;&gt;&lt;b&gt;profiles&lt;/b&gt;&lt;/font&gt;&lt;/div&gt;" style="rounded=0;whiteSpace=wrap;html=1;fillColor=#ffcc99;strokeColor=#36393d;" vertex="1" parent="1">
          <mxGeometry x="650" y="430" width="170" height="50" as="geometry" />
        </mxCell>
        <mxCell id="Axslk_d-Ad8dGzHeB5Ps-10" value="&lt;font style=&quot;font-size: 16px;&quot;&gt;&lt;b&gt;Manage fee details&lt;/b&gt;&lt;/font&gt;" style="rounded=0;whiteSpace=wrap;html=1;fillColor=#ffcc99;strokeColor=#36393d;" vertex="1" parent="1">
          <mxGeometry x="650" y="370" width="170" height="50" as="geometry" />
        </mxCell>
        <mxCell id="Axslk_d-Ad8dGzHeB5Ps-11" value="&lt;b&gt;&lt;font style=&quot;font-size: 15px;&quot;&gt;Manage student&lt;/font&gt;&lt;/b&gt;&lt;div&gt;&lt;b&gt;&lt;font style=&quot;font-size: 15px;&quot;&gt;details&lt;/font&gt;&lt;/b&gt;&lt;/div&gt;" style="rounded=0;whiteSpace=wrap;html=1;fillColor=#ffcc99;strokeColor=#36393d;" vertex="1" parent="1">
          <mxGeometry x="650" y="310" width="170" height="50" as="geometry" />
        </mxCell>
        <mxCell id="Axslk_d-Ad8dGzHeB5Ps-12" value="&lt;b&gt;&lt;font style=&quot;font-size: 15px;&quot;&gt;Manage class details&lt;/font&gt;&lt;/b&gt;" style="rounded=0;whiteSpace=wrap;html=1;fillColor=#ffcc99;strokeColor=#36393d;" vertex="1" parent="1">
          <mxGeometry x="650" y="250" width="170" height="50" as="geometry" />
        </mxCell>
        <mxCell id="Axslk_d-Ad8dGzHeB5Ps-13" value="&lt;font style=&quot;font-size: 13px;&quot;&gt;&lt;b&gt;Manage attendance&amp;nbsp;&lt;/b&gt;&lt;/font&gt;&lt;div&gt;&lt;font style=&quot;font-size: 13px;&quot;&gt;&lt;b&gt;Details&lt;/b&gt;&lt;/font&gt;&lt;/div&gt;" style="rounded=0;whiteSpace=wrap;html=1;fillColor=#ffcc99;strokeColor=#36393d;" vertex="1" parent="1">
          <mxGeometry x="650" y="190" width="170" height="50" as="geometry" />
        </mxCell>
        <mxCell id="Axslk_d-Ad8dGzHeB5Ps-14" value="&lt;b&gt;&lt;font style=&quot;font-size: 13px;&quot;&gt;Manage time-table&amp;nbsp;&lt;/font&gt;&lt;/b&gt;&lt;div&gt;&lt;b&gt;&lt;font style=&quot;font-size: 13px;&quot;&gt;details&lt;/font&gt;&lt;/b&gt;&lt;/div&gt;" style="rounded=0;whiteSpace=wrap;html=1;fillColor=#ffcc99;strokeColor=#36393d;" vertex="1" parent="1">
          <mxGeometry x="650" y="130" width="170" height="50" as="geometry" />
        </mxCell>
        <mxCell id="Axslk_d-Ad8dGzHeB5Ps-15" value="&lt;font style=&quot;font-size: 16px;&quot;&gt;&lt;b&gt;Manage profiles&lt;/b&gt;&lt;/font&gt;" style="rounded=0;whiteSpace=wrap;html=1;fillColor=#ffcc99;strokeColor=#36393d;" vertex="1" parent="1">
          <mxGeometry x="650" y="490" width="170" height="50" as="geometry" />
        </mxCell>
        <mxCell id="Axslk_d-Ad8dGzHeB5Ps-17" value="&lt;b&gt;&lt;font style=&quot;font-size: 13px;&quot;&gt;Manage user permissions&lt;/font&gt;&lt;/b&gt;" style="rounded=0;whiteSpace=wrap;html=1;fillColor=#ffcc99;strokeColor=#36393d;" vertex="1" parent="1">
          <mxGeometry x="470" y="550" width="170" height="50" as="geometry" />
        </mxCell>
        <mxCell id="Axslk_d-Ad8dGzHeB5Ps-18" value="&lt;b&gt;&lt;font style=&quot;font-size: 13px;&quot;&gt;Manage roles of users&lt;/font&gt;&lt;/b&gt;" style="rounded=0;whiteSpace=wrap;html=1;fillColor=#ffcc99;strokeColor=#36393d;" vertex="1" parent="1">
          <mxGeometry x="280" y="550" width="150" height="50" as="geometry" />
        </mxCell>
        <mxCell id="Axslk_d-Ad8dGzHeB5Ps-19" value="&lt;b&gt;&lt;font style=&quot;font-size: 15px;&quot;&gt;Manage system admin&lt;/font&gt;&lt;/b&gt;" style="rounded=0;whiteSpace=wrap;html=1;fillColor=#ffcc99;strokeColor=#36393d;" vertex="1" parent="1">
          <mxGeometry x="60" y="550" width="170" height="50" as="geometry" />
        </mxCell>
        <mxCell id="Axslk_d-Ad8dGzHeB5Ps-20" value="" style="endArrow=classic;html=1;rounded=0;exitX=1;exitY=0.5;exitDx=0;exitDy=0;entryX=0;entryY=0.5;entryDx=0;entryDy=0;" edge="1" parent="1" source="Axslk_d-Ad8dGzHeB5Ps-2" target="Axslk_d-Ad8dGzHeB5Ps-3">
          <mxGeometry width="50" height="50" relative="1" as="geometry">
            <mxPoint x="400" y="350" as="sourcePoint" />
            <mxPoint x="300" y="220" as="targetPoint" />
            <Array as="points">
              <mxPoint x="270" y="200" />
              <mxPoint x="300" y="200" />
            </Array>
          </mxGeometry>
        </mxCell>
        <mxCell id="Axslk_d-Ad8dGzHeB5Ps-21" value="" style="endArrow=classic;html=1;rounded=0;entryX=0.5;entryY=0;entryDx=0;entryDy=0;exitX=0.5;exitY=1;exitDx=0;exitDy=0;" edge="1" parent="1" source="Axslk_d-Ad8dGzHeB5Ps-3" target="Axslk_d-Ad8dGzHeB5Ps-7">
          <mxGeometry width="50" height="50" relative="1" as="geometry">
            <mxPoint x="400" y="350" as="sourcePoint" />
            <mxPoint x="450" y="300" as="targetPoint" />
          </mxGeometry>
        </mxCell>
        <mxCell id="Axslk_d-Ad8dGzHeB5Ps-23" value="" style="endArrow=classic;html=1;rounded=0;entryX=-0.02;entryY=0.662;entryDx=0;entryDy=0;entryPerimeter=0;exitX=0.973;exitY=0.292;exitDx=0;exitDy=0;exitPerimeter=0;" edge="1" parent="1" source="Axslk_d-Ad8dGzHeB5Ps-7" target="Axslk_d-Ad8dGzHeB5Ps-4">
          <mxGeometry width="50" height="50" relative="1" as="geometry">
            <mxPoint x="430" y="310" as="sourcePoint" />
            <mxPoint x="450" y="300" as="targetPoint" />
          </mxGeometry>
        </mxCell>
        <mxCell id="Axslk_d-Ad8dGzHeB5Ps-24" value="" style="endArrow=classic;html=1;rounded=0;" edge="1" parent="1">
          <mxGeometry width="50" height="50" relative="1" as="geometry">
            <mxPoint x="550" y="240" as="sourcePoint" />
            <mxPoint x="550" y="280" as="targetPoint" />
          </mxGeometry>
        </mxCell>
        <mxCell id="Axslk_d-Ad8dGzHeB5Ps-25" value="" style="endArrow=classic;html=1;rounded=0;entryX=0.5;entryY=0;entryDx=0;entryDy=0;" edge="1" parent="1" source="Axslk_d-Ad8dGzHeB5Ps-5" target="Axslk_d-Ad8dGzHeB5Ps-8">
          <mxGeometry width="50" height="50" relative="1" as="geometry">
            <mxPoint x="400" y="350" as="sourcePoint" />
            <mxPoint x="450" y="300" as="targetPoint" />
          </mxGeometry>
        </mxCell>
        <mxCell id="Axslk_d-Ad8dGzHeB5Ps-26" value="" style="endArrow=classic;html=1;rounded=0;entryX=0.5;entryY=0;entryDx=0;entryDy=0;exitX=0.44;exitY=1.06;exitDx=0;exitDy=0;exitPerimeter=0;" edge="1" parent="1" source="Axslk_d-Ad8dGzHeB5Ps-2" target="Axslk_d-Ad8dGzHeB5Ps-5">
          <mxGeometry width="50" height="50" relative="1" as="geometry">
            <mxPoint x="160" y="240" as="sourcePoint" />
            <mxPoint x="450" y="300" as="targetPoint" />
          </mxGeometry>
        </mxCell>
        <mxCell id="Axslk_d-Ad8dGzHeB5Ps-27" value="" style="endArrow=classic;html=1;rounded=0;entryX=0.588;entryY=0;entryDx=0;entryDy=0;entryPerimeter=0;" edge="1" parent="1" source="Axslk_d-Ad8dGzHeB5Ps-6" target="Axslk_d-Ad8dGzHeB5Ps-19">
          <mxGeometry width="50" height="50" relative="1" as="geometry">
            <mxPoint x="360" y="361" as="sourcePoint" />
            <mxPoint x="170" y="540" as="targetPoint" />
          </mxGeometry>
        </mxCell>
        <mxCell id="Axslk_d-Ad8dGzHeB5Ps-28" value="" style="endArrow=classic;html=1;rounded=0;exitX=0.24;exitY=0.942;exitDx=0;exitDy=0;exitPerimeter=0;" edge="1" parent="1" source="Axslk_d-Ad8dGzHeB5Ps-6">
          <mxGeometry width="50" height="50" relative="1" as="geometry">
            <mxPoint x="520" y="350" as="sourcePoint" />
            <mxPoint x="370" y="550" as="targetPoint" />
          </mxGeometry>
        </mxCell>
        <mxCell id="Axslk_d-Ad8dGzHeB5Ps-29" value="" style="endArrow=classic;html=1;rounded=0;entryX=0.424;entryY=-0.052;entryDx=0;entryDy=0;entryPerimeter=0;" edge="1" parent="1" target="Axslk_d-Ad8dGzHeB5Ps-17">
          <mxGeometry width="50" height="50" relative="1" as="geometry">
            <mxPoint x="542" y="360" as="sourcePoint" />
            <mxPoint x="540" y="540" as="targetPoint" />
          </mxGeometry>
        </mxCell>
        <mxCell id="Axslk_d-Ad8dGzHeB5Ps-32" value="" style="endArrow=classic;html=1;rounded=0;entryX=0;entryY=0.5;entryDx=0;entryDy=0;exitX=0.75;exitY=0.062;exitDx=0;exitDy=0;exitPerimeter=0;" edge="1" parent="1" source="Axslk_d-Ad8dGzHeB5Ps-6" target="Axslk_d-Ad8dGzHeB5Ps-14">
          <mxGeometry width="50" height="50" relative="1" as="geometry">
            <mxPoint x="400" y="350" as="sourcePoint" />
            <mxPoint x="450" y="300" as="targetPoint" />
          </mxGeometry>
        </mxCell>
        <mxCell id="Axslk_d-Ad8dGzHeB5Ps-33" value="" style="endArrow=classic;html=1;rounded=0;entryX=0;entryY=0.5;entryDx=0;entryDy=0;exitX=0.94;exitY=0.252;exitDx=0;exitDy=0;exitPerimeter=0;" edge="1" parent="1" source="Axslk_d-Ad8dGzHeB5Ps-6" target="Axslk_d-Ad8dGzHeB5Ps-13">
          <mxGeometry width="50" height="50" relative="1" as="geometry">
            <mxPoint x="400" y="350" as="sourcePoint" />
            <mxPoint x="450" y="300" as="targetPoint" />
          </mxGeometry>
        </mxCell>
        <mxCell id="Axslk_d-Ad8dGzHeB5Ps-34" value="" style="endArrow=classic;html=1;rounded=0;entryX=0;entryY=0.5;entryDx=0;entryDy=0;exitX=0.98;exitY=0.372;exitDx=0;exitDy=0;exitPerimeter=0;" edge="1" parent="1" source="Axslk_d-Ad8dGzHeB5Ps-6" target="Axslk_d-Ad8dGzHeB5Ps-12">
          <mxGeometry width="50" height="50" relative="1" as="geometry">
            <mxPoint x="400" y="350" as="sourcePoint" />
            <mxPoint x="450" y="300" as="targetPoint" />
          </mxGeometry>
        </mxCell>
        <mxCell id="Axslk_d-Ad8dGzHeB5Ps-35" value="" style="endArrow=classic;html=1;rounded=0;exitX=1;exitY=0.682;exitDx=0;exitDy=0;exitPerimeter=0;" edge="1" parent="1" source="Axslk_d-Ad8dGzHeB5Ps-6" target="Axslk_d-Ad8dGzHeB5Ps-11">
          <mxGeometry width="50" height="50" relative="1" as="geometry">
            <mxPoint x="590" y="335" as="sourcePoint" />
            <mxPoint x="450" y="300" as="targetPoint" />
          </mxGeometry>
        </mxCell>
        <mxCell id="Axslk_d-Ad8dGzHeB5Ps-36" value="" style="endArrow=classic;html=1;rounded=0;entryX=0;entryY=0.5;entryDx=0;entryDy=0;exitX=1;exitY=1;exitDx=0;exitDy=0;" edge="1" parent="1" source="Axslk_d-Ad8dGzHeB5Ps-6" target="Axslk_d-Ad8dGzHeB5Ps-10">
          <mxGeometry width="50" height="50" relative="1" as="geometry">
            <mxPoint x="400" y="350" as="sourcePoint" />
            <mxPoint x="450" y="300" as="targetPoint" />
          </mxGeometry>
        </mxCell>
        <mxCell id="Axslk_d-Ad8dGzHeB5Ps-37" value="" style="endArrow=classic;html=1;rounded=0;entryX=0;entryY=0.5;entryDx=0;entryDy=0;exitX=0.71;exitY=0.942;exitDx=0;exitDy=0;exitPerimeter=0;" edge="1" parent="1" source="Axslk_d-Ad8dGzHeB5Ps-6" target="Axslk_d-Ad8dGzHeB5Ps-9">
          <mxGeometry width="50" height="50" relative="1" as="geometry">
            <mxPoint x="580" y="360" as="sourcePoint" />
            <mxPoint x="450" y="300" as="targetPoint" />
          </mxGeometry>
        </mxCell>
        <mxCell id="Axslk_d-Ad8dGzHeB5Ps-38" value="" style="endArrow=classic;html=1;rounded=0;entryX=0;entryY=0.5;entryDx=0;entryDy=0;exitX=0.5;exitY=1;exitDx=0;exitDy=0;" edge="1" parent="1" source="Axslk_d-Ad8dGzHeB5Ps-6" target="Axslk_d-Ad8dGzHeB5Ps-15">
          <mxGeometry width="50" height="50" relative="1" as="geometry">
            <mxPoint x="400" y="350" as="sourcePoint" />
            <mxPoint x="450" y="300" as="targetPoint" />
          </mxGeometry>
        </mxCell>
      </root>
    </mxGraphModel>
  </diagram>
</mxfile>
